# xmcd
#
# Track frame offsets: 
#        150
#        8433
#        22264
#        42332
#        56774
#        72873
#        86408
#        99422
#        112764
#        123758
#        137904
#        150903
#        162326
#        183310
#        195252
#        209000
#        221400
#        235338
#
# Disc length: 3406 seconds
#
# Revision: 0
# Processed by: cddbd v1.5.2PL0 Copyright (c) Steve Scherf et al.
# Submitted via: ExactAudioCopyFreeDBPlugin 1.0
#
DISCID=e80d4c12
DTITLE=Vega - Lieber bleib ich broke
DYEAR=2009
DGENRE=Hip-Hop
TTITLE0=Intro
TTITLE1=König ohne Krone
TTITLE2=Winter
TTITLE3=Inferno
TTITLE4=Ich bin
TTITLE5=Praline feat. Face
TTITLE6=Die Jungs von der Bushalte
TTITLE7=Achthundertzwanzig
TTITLE8=Goldene Flügel
TTITLE9=Für immer Pt. I
TTITLE10=Welt
TTITLE11=Als der Rest der Welt schlief
TTITLE12=Abturn feat. Kool Savas, Ercandize und Moe Mitchell
TTITLE13=2 Sekunden
TTITLE14=Für immer Pt. II
TTITLE15=Als der Teufel mich rief
TTITLE16=Wenn der Junge kommt
TTITLE17=Momente
EXTD=
EXTT0=
EXTT1=
EXTT2=
EXTT3=
EXTT4=
EXTT5=
EXTT6=
EXTT7=
EXTT8=
EXTT9=
EXTT10=
EXTT11=
EXTT12=
EXTT13=
EXTT14=
EXTT15=
EXTT16=
EXTT17=
PLAYORDER=
